<svg width="120" height="120" viewBox="0 0 120 120" fill="none" xmlns="http://www.w3.org/2000/svg">
<path d="M60 15C54.0905 15 48.2389 16.164 42.7792 18.4254C37.3196 20.6869 32.3588 24.0016 28.1802 28.1802C24.0016 32.3588 20.6869 37.3196 18.4254 42.7792C16.164 48.2389 15 54.0905 15 60C15 65.9095 16.164 71.7611 18.4254 77.2208C20.6869 82.6804 24.0016 87.6412 28.1802 91.8198C32.3588 95.9984 37.3196 99.3131 42.7792 101.575C48.2389 103.836 54.0905 105 60 105C71.9347 105 83.3807 100.259 91.8198 91.8198C100.259 83.3807 105 71.9347 105 60C105 48.0653 100.259 36.6193 91.8198 28.1802C83.3807 19.7411 71.9347 15 60 15ZM0 60C0 44.087 6.32141 28.8258 17.5736 17.5736C28.8258 6.32141 44.087 0 60 0C75.913 0 91.1742 6.32141 102.426 17.5736C113.679 28.8258 120 44.087 120 60C120 75.913 113.679 91.1742 102.426 102.426C91.1742 113.679 75.913 120 60 120C44.087 120 28.8258 113.679 17.5736 102.426C6.32141 91.1742 0 75.913 0 60Z" fill="#F24822"/>
</svg>
