<svg width="91" height="91" viewBox="0 0 91 91" fill="none" xmlns="http://www.w3.org/2000/svg">
<path d="M90.6181 73.25C90.6181 75.2825 89.9067 77.0102 88.484 78.4329L78.1181 88.7988C76.6953 90.2215 74.9677 90.9329 72.9352 90.9329C70.9027 90.9329 69.175 90.2215 67.7523 88.7988L45.3437 66.3903L22.9352 88.7988C21.5124 90.2215 19.7848 90.9329 17.7523 90.9329C15.7197 90.9329 13.9921 90.2215 12.5693 88.7988L2.20348 78.4329C0.780718 77.0102 0.0693359 75.2825 0.0693359 73.25C0.0693359 71.2175 0.780718 69.4898 2.20348 68.0671L24.612 45.6585L2.20348 23.25C0.780718 21.8272 0.0693359 20.0996 0.0693359 18.0671C0.0693359 16.0346 0.780718 14.3069 2.20348 12.8842L12.5693 2.5183C13.9921 1.09554 15.7197 0.384155 17.7523 0.384155C19.7848 0.384155 21.5124 1.09554 22.9352 2.5183L45.3437 24.9268L67.7523 2.5183C69.175 1.09554 70.9027 0.384155 72.9352 0.384155C74.9677 0.384155 76.6953 1.09554 78.1181 2.5183L88.484 12.8842C89.9067 14.3069 90.6181 16.0346 90.6181 18.0671C90.6181 20.0996 89.9067 21.8272 88.484 23.25L66.0754 45.6585L88.484 68.0671C89.9067 69.4898 90.6181 71.2175 90.6181 73.25Z" fill="#F24822"/>
</svg>
